<mxfile host="app.diagrams.net" agent="Claude Code" version="28.2.5">
  <diagram id="claude-docs-architecture" name="Claude Code Docs Architecture">
    <mxGraphModel dx="2400" dy="1600" grid="1" gridSize="10" guides="1" tooltips="1" connect="1" arrows="1" fold="1" page="1" pageScale="1" pageWidth="2400" pageHeight="1800" math="0" shadow="0">
      <root>
        <mxCell id="0" />
        <mxCell id="1" parent="0" />

        <!-- TITLE -->
        <mxCell id="title" value="Claude Code Documentation - Website Architecture" style="text;html=1;strokeColor=none;fillColor=none;align=center;verticalAlign=middle;whiteSpace=wrap;rounded=0;fontSize=28;fontStyle=1" parent="1" vertex="1">
          <mxGeometry x="600" y="40" width="1200" height="50" as="geometry" />
        </mxCell>

        <!-- LEGEND SECTION (Top Left) -->
        <mxCell id="legend-container" value="" style="rounded=1;whiteSpace=wrap;html=1;fillColor=#f5f5f5;strokeColor=#666666;dashed=1;dashPattern=8 8;" parent="1" vertex="1">
          <mxGeometry x="80" y="120" width="400" height="200" as="geometry" />
        </mxCell>
        <mxCell id="legend-title" value="Legend" style="text;html=1;strokeColor=none;fillColor=none;align=center;verticalAlign=middle;whiteSpace=wrap;rounded=0;fontSize=18;fontStyle=1" parent="1" vertex="1">
          <mxGeometry x="80" y="130" width="400" height="30" as="geometry" />
        </mxCell>
        <mxCell id="legend-html" value="HTML Pages" style="rounded=1;whiteSpace=wrap;html=1;fillColor=#dae8fc;strokeColor=#6c8ebf;fontSize=12;" parent="1" vertex="1">
          <mxGeometry x="100" y="170" width="120" height="35" as="geometry" />
        </mxCell>
        <mxCell id="legend-js" value="JavaScript" style="rounded=1;whiteSpace=wrap;html=1;fillColor=#fff2cc;strokeColor=#d6b656;fontSize=12;" parent="1" vertex="1">
          <mxGeometry x="240" y="170" width="120" height="35" as="geometry" />
        </mxCell>
        <mxCell id="legend-css" value="CSS" style="rounded=1;whiteSpace=wrap;html=1;fillColor=#d5e8d4;strokeColor=#82b366;fontSize=12;" parent="1" vertex="1">
          <mxGeometry x="380" y="170" width="80" height="35" as="geometry" />
        </mxCell>
        <mxCell id="legend-external" value="External Libs" style="rounded=1;whiteSpace=wrap;html=1;fillColor=#e1d5e7;strokeColor=#9673a6;fontSize=12;" parent="1" vertex="1">
          <mxGeometry x="100" y="220" width="120" height="35" as="geometry" />
        </mxCell>
        <mxCell id="legend-interaction" value="User Action" style="rounded=1;whiteSpace=wrap;html=1;fillColor=#ffe6cc;strokeColor=#d79b00;fontSize=12;" parent="1" vertex="1">
          <mxGeometry x="240" y="220" width="120" height="35" as="geometry" />
        </mxCell>
        <mxCell id="legend-storage" value="localStorage" style="rounded=1;whiteSpace=wrap;html=1;fillColor=#f8cecc;strokeColor=#b85450;fontSize=12;" parent="1" vertex="1">
          <mxGeometry x="380" y="220" width="80" height="35" as="geometry" />
        </mxCell>

        <!-- HTML PAGES SECTION (Top Center - Horizontal Row) -->
        <mxCell id="html-section" value="Documentation Pages (9 HTML Files)" style="swimlane;whiteSpace=wrap;html=1;fillColor=#dae8fc;strokeColor=#6c8ebf;fontSize=16;fontStyle=1;startSize=40;" parent="1" vertex="1">
          <mxGeometry x="560" y="120" width="1760" height="280" as="geometry" />
        </mxCell>
        <mxCell id="page-home" value="index.html&#xa;(Home Page)" style="rounded=1;whiteSpace=wrap;html=1;fillColor=#cfe2f3;strokeColor=#6c8ebf;fontSize=12;fontStyle=1;" parent="html-section" vertex="1">
          <mxGeometry x="40" y="60" width="160" height="60" as="geometry" />
        </mxCell>
        <mxCell id="page-1" value="01-introduccion.html&#xa;(Introduction)" style="rounded=1;whiteSpace=wrap;html=1;fillColor=#cfe2f3;strokeColor=#6c8ebf;fontSize=11;" parent="html-section" vertex="1">
          <mxGeometry x="230" y="60" width="160" height="60" as="geometry" />
        </mxCell>
        <mxCell id="page-2" value="02-instalacion.html&#xa;(Installation)" style="rounded=1;whiteSpace=wrap;html=1;fillColor=#cfe2f3;strokeColor=#6c8ebf;fontSize=11;" parent="html-section" vertex="1">
          <mxGeometry x="420" y="60" width="160" height="60" as="geometry" />
        </mxCell>
        <mxCell id="page-3" value="03-comandos.html&#xa;(Commands)" style="rounded=1;whiteSpace=wrap;html=1;fillColor=#cfe2f3;strokeColor=#6c8ebf;fontSize=11;" parent="html-section" vertex="1">
          <mxGeometry x="610" y="60" width="160" height="60" as="geometry" />
        </mxCell>
        <mxCell id="page-4" value="04-contexto.html&#xa;(Context Mgmt)" style="rounded=1;whiteSpace=wrap;html=1;fillColor=#cfe2f3;strokeColor=#6c8ebf;fontSize=11;" parent="html-section" vertex="1">
          <mxGeometry x="800" y="60" width="160" height="60" as="geometry" />
        </mxCell>
        <mxCell id="page-5" value="05-mcp.html&#xa;(MCP Protocol)" style="rounded=1;whiteSpace=wrap;html=1;fillColor=#cfe2f3;strokeColor=#6c8ebf;fontSize=11;" parent="html-section" vertex="1">
          <mxGeometry x="990" y="60" width="160" height="60" as="geometry" />
        </mxCell>
        <mxCell id="page-6" value="06-mejores-practicas&#xa;(Best Practices)" style="rounded=1;whiteSpace=wrap;html=1;fillColor=#cfe2f3;strokeColor=#6c8ebf;fontSize=11;" parent="html-section" vertex="1">
          <mxGeometry x="1180" y="60" width="160" height="60" as="geometry" />
        </mxCell>
        <mxCell id="page-7" value="07-casos-avanzados&#xa;(Advanced Cases)" style="rounded=1;whiteSpace=wrap;html=1;fillColor=#cfe2f3;strokeColor=#6c8ebf;fontSize=11;" parent="html-section" vertex="1">
          <mxGeometry x="1370" y="60" width="160" height="60" as="geometry" />
        </mxCell>
        <mxCell id="page-8" value="08-troubleshooting&#xa;(Troubleshooting)" style="rounded=1;whiteSpace=wrap;html=1;fillColor=#cfe2f3;strokeColor=#6c8ebf;fontSize=11;" parent="html-section" vertex="1">
          <mxGeometry x="1560" y="60" width="160" height="60" as="geometry" />
        </mxCell>
        <mxCell id="common-structure" value="Common Structure for All Pages:&#xa;• Header (logo, page selector, theme toggle)&#xa;• Progress indicator (visual bar + text)&#xa;• Content wrapper (semantic HTML)&#xa;• Navigation buttons (prev/next)&#xa;• Footer with links&#xa;&#xa;All pages load:&#xa;  → assets/js/navigation.js&#xa;  → assets/js/code-copy.js&#xa;  → assets/css/styles.css&#xa;  → highlight.js (external CDN)" style="rounded=1;whiteSpace=wrap;html=1;fillColor=#e1f5fe;strokeColor=#4fc3f7;fontSize=11;align=left;spacingLeft=15;verticalAlign=top;" parent="html-section" vertex="1">
          <mxGeometry x="40" y="140" width="1680" height="120" as="geometry" />
        </mxCell>

        <!-- JAVASCRIPT COMPONENTS SECTION (Middle Left) -->
        <mxCell id="js-section" value="JavaScript Components" style="swimlane;whiteSpace=wrap;html=1;fillColor=#fff2cc;strokeColor=#d6b656;fontSize=16;fontStyle=1;startSize=40;" parent="1" vertex="1">
          <mxGeometry x="80" y="480" width="680" height="580" as="geometry" />
        </mxCell>
        <mxCell id="navigation-js" value="navigation.js" style="rounded=1;whiteSpace=wrap;html=1;fillColor=#fff9e6;strokeColor=#d6b656;fontSize=14;fontStyle=1;" parent="js-section" vertex="1">
          <mxGeometry x="40" y="60" width="600" height="50" as="geometry" />
        </mxCell>
        <mxCell id="nav-pages-array" value="pages Array (Lines 7-17)&#xa;Single Source of Truth for Navigation&#xa;• 9 page definitions&#xa;• Properties: file, title, id for each page&#xa;• Powers all navigation features" style="rounded=1;whiteSpace=wrap;html=1;fillColor=#fffacd;strokeColor=#d6b656;fontSize=12;align=left;spacingLeft=15;verticalAlign=top;" parent="js-section" vertex="1">
          <mxGeometry x="50" y="130" width="580" height="100" as="geometry" />
        </mxCell>
        <mxCell id="nav-features" value="Navigation Features:&#xa;• Page selector dropdown (dynamic generation)&#xa;• Previous/Next buttons with logic&#xa;• Keyboard shortcuts (←/→, p/n, h)&#xa;• Progress indicator calculation&#xa;• Functions: getCurrentPage(), navigateTo()&#xa;• URL-based page detection" style="rounded=1;whiteSpace=wrap;html=1;fillColor=#fffacd;strokeColor=#d6b656;fontSize=12;align=left;spacingLeft=15;verticalAlign=top;" parent="js-section" vertex="1">
          <mxGeometry x="50" y="250" width="580" height="120" as="geometry" />
        </mxCell>
        <mxCell id="code-copy-js" value="code-copy.js" style="rounded=1;whiteSpace=wrap;html=1;fillColor=#fff9e6;strokeColor=#d6b656;fontSize=14;fontStyle=1;" parent="js-section" vertex="1">
          <mxGeometry x="40" y="400" width="600" height="50" as="geometry" />
        </mxCell>
        <mxCell id="code-features" value="Code Enhancement Features:&#xa;• Auto-detects all &lt;code&gt; blocks in page&#xa;• Adds copy buttons with click feedback&#xa;• Syntax highlighting integration with highlight.js&#xa;• Language labels for code blocks&#xa;• macOS command detection &amp; highlighting&#xa;  (brew, chmod, xattr, codesign, launchctl, etc.)" style="rounded=1;whiteSpace=wrap;html=1;fillColor=#fffacd;strokeColor=#d6b656;fontSize=12;align=left;spacingLeft=15;verticalAlign=top;" parent="js-section" vertex="1">
          <mxGeometry x="50" y="470" width="580" height="100" as="geometry" />
        </mxCell>

        <!-- THEME SYSTEM (Middle Center) -->
        <mxCell id="theme-section" value="Theme System" style="swimlane;whiteSpace=wrap;html=1;fillColor=#f8cecc;strokeColor=#b85450;fontSize=16;fontStyle=1;startSize=40;" parent="1" vertex="1">
          <mxGeometry x="820" y="480" width="500" height="320" as="geometry" />
        </mxCell>
        <mxCell id="theme-storage" value="localStorage&#xa;key: 'theme'&#xa;values: 'light' | 'dark'" style="rounded=1;whiteSpace=wrap;html=1;fillColor=#ffcccc;strokeColor=#b85450;fontSize=13;fontStyle=1;" parent="theme-section" vertex="1">
          <mxGeometry x="40" y="60" width="200" height="90" as="geometry" />
        </mxCell>
        <mxCell id="theme-logic" value="Theme Logic (navigation.js):&#xa;• Loads saved theme on init&#xa;• Respects system preference (first visit)&#xa;• Toggle button (☀️/🌙) in header&#xa;• Applies via data-theme attribute&#xa;  on &lt;html&gt; element&#xa;• Triggers CSS variable changes&#xa;• Dark/Light mode color schemes" style="rounded=1;whiteSpace=wrap;html=1;fillColor=#ffcccc;strokeColor=#b85450;fontSize=12;align=left;spacingLeft=15;verticalAlign=top;" parent="theme-section" vertex="1">
          <mxGeometry x="260" y="60" width="220" height="180" as="geometry" />
        </mxCell>
        <mxCell id="theme-flow" value="Theme Application Flow:&#xa;1. Check localStorage for saved theme&#xa;2. If none, detect system preference&#xa;3. Apply data-theme to &lt;html&gt;&#xa;4. CSS variables update automatically&#xa;5. Save changes to localStorage" style="rounded=1;whiteSpace=wrap;html=1;fillColor=#ffe6e6;strokeColor=#b85450;fontSize=11;align=left;spacingLeft=15;verticalAlign=top;" parent="theme-section" vertex="1">
          <mxGeometry x="40" y="170" width="200" height="130" as="geometry" />
        </mxCell>

        <!-- EXTERNAL DEPENDENCIES (Top Right Corner) -->
        <mxCell id="external-section" value="External Dependencies" style="swimlane;whiteSpace=wrap;html=1;fillColor=#e1d5e7;strokeColor=#9673a6;fontSize=16;fontStyle=1;startSize=40;" parent="1" vertex="1">
          <mxGeometry x="80" y="360" width="400" height="180" as="geometry" />
        </mxCell>
        <mxCell id="highlightjs" value="highlight.js&#xa;Syntax Highlighting Library&#xa;&#xa;• Loaded via CDN&#xa;• Auto-initializes on page load&#xa;• Detects language from class names&#xa;• Applies syntax coloring to code blocks" style="rounded=1;whiteSpace=wrap;html=1;fillColor=#f3e5f5;strokeColor=#9673a6;fontSize=12;align=left;spacingLeft=15;verticalAlign=top;" parent="external-section" vertex="1">
          <mxGeometry x="30" y="60" width="340" height="100" as="geometry" />
        </mxCell>

        <!-- CSS & ASSETS SECTION (Middle Right) -->
        <mxCell id="css-section" value="Styles &amp; Assets" style="swimlane;whiteSpace=wrap;html=1;fillColor=#d5e8d4;strokeColor=#82b366;fontSize=16;fontStyle=1;startSize=40;" parent="1" vertex="1">
          <mxGeometry x="1380" y="480" width="600" height="580" as="geometry" />
        </mxCell>
        <mxCell id="styles-css" value="assets/css/styles.css" style="rounded=1;whiteSpace=wrap;html=1;fillColor=#e8f5e9;strokeColor=#82b366;fontSize=14;fontStyle=1;" parent="css-section" vertex="1">
          <mxGeometry x="40" y="60" width="520" height="50" as="geometry" />
        </mxCell>
        <mxCell id="css-vars" value="CSS Variables (Lines 6-54):&#xa;• --primary-color (main brand color)&#xa;• --secondary-color (accents)&#xa;• --accent-color (highlights)&#xa;• --spacing-xs through --spacing-2xl&#xa;• --font-sans (system fonts)&#xa;• --font-mono (code blocks)" style="rounded=1;whiteSpace=wrap;html=1;fillColor=#f1f8e9;strokeColor=#82b366;fontSize=12;align=left;spacingLeft=15;verticalAlign=top;" parent="css-section" vertex="1">
          <mxGeometry x="50" y="130" width="500" height="120" as="geometry" />
        </mxCell>
        <mxCell id="dark-mode-css" value="Dark Mode Overrides:&#xa;:root[data-theme=&quot;dark&quot;]&#xa;• Different color scheme for backgrounds&#xa;• Adjusted text contrast for readability&#xa;• Modified borders and shadows" style="rounded=1;whiteSpace=wrap;html=1;fillColor=#f1f8e9;strokeColor=#82b366;fontSize=12;align=left;spacingLeft=15;verticalAlign=top;" parent="css-section" vertex="1">
          <mxGeometry x="50" y="270" width="500" height="90" as="geometry" />
        </mxCell>
        <mxCell id="components-css" value="Component Styles:&#xa;• Alerts (info, warning, success, tip)&#xa;• Code blocks with copy button styling&#xa;• Feature cards (grid layout, responsive)&#xa;• Navigation buttons (prev/next)&#xa;• Progress indicators (bar + text)&#xa;• Responsive design (mobile + desktop)" style="rounded=1;whiteSpace=wrap;html=1;fillColor=#f1f8e9;strokeColor=#82b366;fontSize=12;align=left;spacingLeft=15;verticalAlign=top;" parent="css-section" vertex="1">
          <mxGeometry x="50" y="380" width="500" height="120" as="geometry" />
        </mxCell>
        <mxCell id="assets-structure" value="Asset File Structure:&#xa;assets/&#xa;  ├── css/&#xa;  │   └── styles.css&#xa;  └── js/&#xa;      ├── navigation.js&#xa;      └── code-copy.js" style="rounded=1;whiteSpace=wrap;html=1;fillColor=#e8f5e9;strokeColor=#82b366;fontSize=11;align=left;fontFamily=monospace;spacingLeft=15;verticalAlign=top;" parent="css-section" vertex="1">
          <mxGeometry x="50" y="520" width="250" height="40" as="geometry" />
        </mxCell>

        <!-- USER INTERACTION FLOW (Right Side) -->
        <mxCell id="user-flow-section" value="User Interaction Flow" style="swimlane;whiteSpace=wrap;html=1;fillColor=#ffe6cc;strokeColor=#d79b00;fontSize=16;fontStyle=1;startSize=40;" parent="1" vertex="1">
          <mxGeometry x="2040" y="480" width="280" height="580" as="geometry" />
        </mxCell>
        <mxCell id="user-actions" value="User Actions" style="rounded=1;whiteSpace=wrap;html=1;fillColor=#fff4e6;strokeColor=#d79b00;fontSize=13;fontStyle=1;" parent="user-flow-section" vertex="1">
          <mxGeometry x="20" y="60" width="240" height="40" as="geometry" />
        </mxCell>
        <mxCell id="action-1" value="1. Page Load&#xa;   Initial render" style="rounded=1;whiteSpace=wrap;html=1;fillColor=#fff8e1;strokeColor=#d79b00;fontSize=11;align=left;spacingLeft=10;" parent="user-flow-section" vertex="1">
          <mxGeometry x="30" y="120" width="220" height="45" as="geometry" />
        </mxCell>
        <mxCell id="action-2" value="2. Navigate&#xa;   • Dropdown selector&#xa;   • Prev/Next buttons&#xa;   • Keyboard shortcuts" style="rounded=1;whiteSpace=wrap;html=1;fillColor=#fff8e1;strokeColor=#d79b00;fontSize=11;align=left;spacingLeft=10;verticalAlign=top;" parent="user-flow-section" vertex="1">
          <mxGeometry x="30" y="180" width="220" height="75" as="geometry" />
        </mxCell>
        <mxCell id="action-3" value="3. Toggle Theme&#xa;   • Click theme button&#xa;   • Saved to localStorage" style="rounded=1;whiteSpace=wrap;html=1;fillColor=#fff8e1;strokeColor=#d79b00;fontSize=11;align=left;spacingLeft=10;verticalAlign=top;" parent="user-flow-section" vertex="1">
          <mxGeometry x="30" y="270" width="220" height="65" as="geometry" />
        </mxCell>
        <mxCell id="action-4" value="4. Copy Code&#xa;   • Click copy button&#xa;   • Feedback (✓ Copiado)" style="rounded=1;whiteSpace=wrap;html=1;fillColor=#fff8e1;strokeColor=#d79b00;fontSize=11;align=left;spacingLeft=10;verticalAlign=top;" parent="user-flow-section" vertex="1">
          <mxGeometry x="30" y="350" width="220" height="65" as="geometry" />
        </mxCell>
        <mxCell id="action-5" value="5. Smooth Scroll&#xa;   • Click anchor links&#xa;   • Scroll to section" style="rounded=1;whiteSpace=wrap;html=1;fillColor=#fff8e1;strokeColor=#d79b00;fontSize=11;align=left;spacingLeft=10;verticalAlign=top;" parent="user-flow-section" vertex="1">
          <mxGeometry x="30" y="430" width="220" height="65" as="geometry" />
        </mxCell>
        <mxCell id="action-6" value="6. Read Content&#xa;   • Scroll through page&#xa;   • Interactive elements" style="rounded=1;whiteSpace=wrap;html=1;fillColor=#fff8e1;strokeColor=#d79b00;fontSize=11;align=left;spacingLeft=10;verticalAlign=top;" parent="user-flow-section" vertex="1">
          <mxGeometry x="30" y="510" width="220" height="55" as="geometry" />
        </mxCell>

        <!-- ADDITIONAL INFO BOXES (Bottom Right) -->
        <mxCell id="progress-note" value="Progress Calculation:&#xa;(pageIndex + 1) / 9 * 100&#xa;&#xa;• Page 1: 11.11%&#xa;• Page 5: 55.55%&#xa;• Page 9: 100%" style="rounded=1;whiteSpace=wrap;html=1;fillColor=#fff3e0;strokeColor=#ff9800;fontSize=11;fontStyle=1;align=left;spacingLeft=10;verticalAlign=top;" parent="1" vertex="1">
          <mxGeometry x="2040" y="120" width="280" height="130" as="geometry" />
        </mxCell>
        <mxCell id="keyboard-shortcuts" value="Keyboard Shortcuts:&#xa;&#xa;← or p = Previous page&#xa;→ or n = Next page&#xa;h = Home page&#xa;&#xa;Implemented in:&#xa;navigation.js (lines 76-96)" style="rounded=1;whiteSpace=wrap;html=1;fillColor=#e3f2fd;strokeColor=#2196f3;fontSize=11;fontStyle=0;align=left;spacingLeft=10;verticalAlign=top;" parent="1" vertex="1">
          <mxGeometry x="2040" y="270" width="280" height="150" as="geometry" />
        </mxCell>

        <!-- DEPLOYMENT INFO (Bottom Center) -->
        <mxCell id="deployment-section" value="Deployment Configuration" style="swimlane;whiteSpace=wrap;html=1;fillColor=#fce4ec;strokeColor=#c2185b;fontSize=16;fontStyle=1;startSize=40;" parent="1" vertex="1">
          <mxGeometry x="820" y="860" width="500" height="200" as="geometry" />
        </mxCell>
        <mxCell id="deployment-info" value="Platform: GitHub Pages&#xa;&#xa;Technology Stack:&#xa;• Pure static HTML/CSS/JavaScript&#xa;• No build process required&#xa;• No bundling or compilation&#xa;• Direct file serving&#xa;&#xa;Deployment Root: claude-code-docs/&#xa;Branch: main&#xa;URL: https://[USER].github.io/[REPO]/" style="rounded=1;whiteSpace=wrap;html=1;fillColor=#fce4ec;strokeColor=#c2185b;fontSize=12;align=left;spacingLeft=15;verticalAlign=top;" parent="deployment-section" vertex="1">
          <mxGeometry x="30" y="60" width="440" height="120" as="geometry" />
        </mxCell>

        <!-- MACOS SPECIFIC INFO (Bottom Left) -->
        <mxCell id="macos-note" value="macOS Specific Features:&#xa;&#xa;• zsh shell syntax (default macOS shell)&#xa;• Homebrew package manager commands&#xa;• ~/.zshrc configuration references&#xa;• Special command highlighting:&#xa;  brew, chmod, xattr, codesign,&#xa;  launchctl, security, xcode-select&#xa;&#xa;All content and examples optimized&#xa;for macOS users exclusively." style="rounded=1;whiteSpace=wrap;html=1;fillColor=#e8f5e9;strokeColor=#4caf50;fontSize=11;align=left;spacingLeft=15;verticalAlign=top;fontStyle=1;" parent="1" vertex="1">
          <mxGeometry x="80" y="1140" width="320" height="220" as="geometry" />
        </mxCell>

        <!-- COMPONENTS INFO -->
        <mxCell id="components-note" value="Reusable HTML Patterns:&#xa;&#xa;• Alerts (4 types):&#xa;  info, warning, success, tip&#xa;&#xa;• Code blocks:&#xa;  Auto-enhanced with copy buttons&#xa;&#xa;• Feature cards:&#xa;  Responsive grid layout&#xa;&#xa;• Navigation elements:&#xa;  Prev/Next, Progress bars" style="rounded=1;whiteSpace=wrap;html=1;fillColor=#f3e5f5;strokeColor=#7b1fa2;fontSize=11;align=left;spacingLeft=15;verticalAlign=top;" parent="1" vertex="1">
          <mxGeometry x="450" y="1140" width="280" height="220" as="geometry" />
        </mxCell>

        <!-- DATA FLOW SUMMARY (Bottom Section) -->
        <mxCell id="dataflow-summary" value="Data Flow Summary" style="swimlane;whiteSpace=wrap;html=1;fillColor=#fff9c4;strokeColor=#f9a825;fontSize=16;fontStyle=1;startSize=40;" parent="1" vertex="1">
          <mxGeometry x="80" y="1420" width="1600" height="220" as="geometry" />
        </mxCell>
        <mxCell id="dataflow-1" value="1. User loads&#xa;   HTML page" style="rounded=1;whiteSpace=wrap;html=1;fillColor=#fffde7;strokeColor=#f9a825;fontSize=11;fontStyle=1;" parent="dataflow-summary" vertex="1">
          <mxGeometry x="30" y="60" width="180" height="60" as="geometry" />
        </mxCell>
        <mxCell id="dataflow-2" value="2. DOMContentLoaded&#xa;   triggers JS init" style="rounded=1;whiteSpace=wrap;html=1;fillColor=#fffde7;strokeColor=#f9a825;fontSize=11;fontStyle=1;" parent="dataflow-summary" vertex="1">
          <mxGeometry x="230" y="60" width="180" height="60" as="geometry" />
        </mxCell>
        <mxCell id="dataflow-3" value="3. navigation.js&#xa;   sets up nav system" style="rounded=1;whiteSpace=wrap;html=1;fillColor=#fffde7;strokeColor=#f9a825;fontSize=11;fontStyle=1;" parent="dataflow-summary" vertex="1">
          <mxGeometry x="430" y="60" width="180" height="60" as="geometry" />
        </mxCell>
        <mxCell id="dataflow-4" value="4. code-copy.js&#xa;   enhances code blocks" style="rounded=1;whiteSpace=wrap;html=1;fillColor=#fffde7;strokeColor=#f9a825;fontSize=11;fontStyle=1;" parent="dataflow-summary" vertex="1">
          <mxGeometry x="630" y="60" width="180" height="60" as="geometry" />
        </mxCell>
        <mxCell id="dataflow-5" value="5. highlight.js&#xa;   applies syntax color" style="rounded=1;whiteSpace=wrap;html=1;fillColor=#fffde7;strokeColor=#f9a825;fontSize=11;fontStyle=1;" parent="dataflow-summary" vertex="1">
          <mxGeometry x="830" y="60" width="180" height="60" as="geometry" />
        </mxCell>
        <mxCell id="dataflow-6" value="6. User interactions&#xa;   trigger nav/theme" style="rounded=1;whiteSpace=wrap;html=1;fillColor=#fffde7;strokeColor=#f9a825;fontSize=11;fontStyle=1;" parent="dataflow-summary" vertex="1">
          <mxGeometry x="1030" y="60" width="180" height="60" as="geometry" />
        </mxCell>
        <mxCell id="dataflow-7" value="7. Theme saved to&#xa;   localStorage" style="rounded=1;whiteSpace=wrap;html=1;fillColor=#fffde7;strokeColor=#f9a825;fontSize=11;fontStyle=1;" parent="dataflow-summary" vertex="1">
          <mxGeometry x="230" y="140" width="180" height="60" as="geometry" />
        </mxCell>
        <mxCell id="dataflow-8" value="8. CSS applies styles&#xa;   via data-theme attr" style="rounded=1;whiteSpace=wrap;html=1;fillColor=#fffde7;strokeColor=#f9a825;fontSize=11;fontStyle=1;" parent="dataflow-summary" vertex="1">
          <mxGeometry x="430" y="140" width="180" height="60" as="geometry" />
        </mxCell>
        <mxCell id="dataflow-9" value="9. Page navigation&#xa;   updates URL &amp; content" style="rounded=1;whiteSpace=wrap;html=1;fillColor=#fffde7;strokeColor=#f9a825;fontSize=11;fontStyle=1;" parent="dataflow-summary" vertex="1">
          <mxGeometry x="630" y="140" width="180" height="60" as="geometry" />
        </mxCell>
        <mxCell id="dataflow-10" value="10. Smooth animations&#xa;    enhance UX" style="rounded=1;whiteSpace=wrap;html=1;fillColor=#fffde7;strokeColor=#f9a825;fontSize=11;fontStyle=1;" parent="dataflow-summary" vertex="1">
          <mxGeometry x="830" y="140" width="180" height="60" as="geometry" />
        </mxCell>

        <!-- KEY FEATURES SUMMARY (Bottom Section) -->
        <mxCell id="features-summary" value="Key Features" style="swimlane;whiteSpace=wrap;html=1;fillColor=#e0f2f1;strokeColor=#00897b;fontSize=16;fontStyle=1;startSize=40;" parent="1" vertex="1">
          <mxGeometry x="1740" y="1140" width="580" height="500" as="geometry" />
        </mxCell>
        <mxCell id="feature-1" value="Zero Build Process&#xa;Pure HTML/CSS/JS" style="rounded=1;whiteSpace=wrap;html=1;fillColor=#e8f5e9;strokeColor=#00897b;fontSize=11;fontStyle=1;" parent="features-summary" vertex="1">
          <mxGeometry x="30" y="60" width="160" height="50" as="geometry" />
        </mxCell>
        <mxCell id="feature-2" value="Single Source of Truth&#xa;pages array in JS" style="rounded=1;whiteSpace=wrap;html=1;fillColor=#e8f5e9;strokeColor=#00897b;fontSize=11;fontStyle=1;" parent="features-summary" vertex="1">
          <mxGeometry x="210" y="60" width="160" height="50" as="geometry" />
        </mxCell>
        <mxCell id="feature-3" value="Theme Persistence&#xa;localStorage + CSS vars" style="rounded=1;whiteSpace=wrap;html=1;fillColor=#e8f5e9;strokeColor=#00897b;fontSize=11;fontStyle=1;" parent="features-summary" vertex="1">
          <mxGeometry x="390" y="60" width="160" height="50" as="geometry" />
        </mxCell>
        <mxCell id="feature-4" value="Auto Code Enhancement&#xa;Copy + Syntax highlight" style="rounded=1;whiteSpace=wrap;html=1;fillColor=#e8f5e9;strokeColor=#00897b;fontSize=11;fontStyle=1;" parent="features-summary" vertex="1">
          <mxGeometry x="30" y="130" width="160" height="50" as="geometry" />
        </mxCell>
        <mxCell id="feature-5" value="Keyboard Navigation&#xa;←/→, p/n, h shortcuts" style="rounded=1;whiteSpace=wrap;html=1;fillColor=#e8f5e9;strokeColor=#00897b;fontSize=11;fontStyle=1;" parent="features-summary" vertex="1">
          <mxGeometry x="210" y="130" width="160" height="50" as="geometry" />
        </mxCell>
        <mxCell id="feature-6" value="macOS Optimized&#xa;zsh, Homebrew focus" style="rounded=1;whiteSpace=wrap;html=1;fillColor=#e8f5e9;strokeColor=#00897b;fontSize=11;fontStyle=1;" parent="features-summary" vertex="1">
          <mxGeometry x="390" y="130" width="160" height="50" as="geometry" />
        </mxCell>
        <mxCell id="feature-7" value="Progress Tracking&#xa;Visual + Text indicator" style="rounded=1;whiteSpace=wrap;html=1;fillColor=#e8f5e9;strokeColor=#00897b;fontSize=11;fontStyle=1;" parent="features-summary" vertex="1">
          <mxGeometry x="30" y="200" width="160" height="50" as="geometry" />
        </mxCell>
        <mxCell id="feature-8" value="Responsive Design&#xa;Mobile + Desktop" style="rounded=1;whiteSpace=wrap;html=1;fillColor=#e8f5e9;strokeColor=#00897b;fontSize=11;fontStyle=1;" parent="features-summary" vertex="1">
          <mxGeometry x="210" y="200" width="160" height="50" as="geometry" />
        </mxCell>
        <mxCell id="feature-9" value="Spanish Language&#xa;macOS users focused" style="rounded=1;whiteSpace=wrap;html=1;fillColor=#e8f5e9;strokeColor=#00897b;fontSize=11;fontStyle=1;" parent="features-summary" vertex="1">
          <mxGeometry x="390" y="200" width="160" height="50" as="geometry" />
        </mxCell>
        <mxCell id="feature-10" value="GitHub Pages Ready&#xa;Static deployment" style="rounded=1;whiteSpace=wrap;html=1;fillColor=#e8f5e9;strokeColor=#00897b;fontSize=11;fontStyle=1;" parent="features-summary" vertex="1">
          <mxGeometry x="30" y="270" width="160" height="50" as="geometry" />
        </mxCell>
        <mxCell id="feature-11" value="Reusable Components&#xa;HTML patterns" style="rounded=1;whiteSpace=wrap;html=1;fillColor=#e8f5e9;strokeColor=#00897b;fontSize=11;fontStyle=1;" parent="features-summary" vertex="1">
          <mxGeometry x="210" y="270" width="160" height="50" as="geometry" />
        </mxCell>
        <mxCell id="feature-12" value="Accessibility Ready&#xa;Semantic HTML" style="rounded=1;whiteSpace=wrap;html=1;fillColor=#e8f5e9;strokeColor=#00897b;fontSize=11;fontStyle=1;" parent="features-summary" vertex="1">
          <mxGeometry x="390" y="270" width="160" height="50" as="geometry" />
        </mxCell>
        <mxCell id="feature-13" value="No External Build Tools&#xa;Works everywhere" style="rounded=1;whiteSpace=wrap;html=1;fillColor=#e8f5e9;strokeColor=#00897b;fontSize=11;fontStyle=1;" parent="features-summary" vertex="1">
          <mxGeometry x="30" y="340" width="160" height="50" as="geometry" />
        </mxCell>
        <mxCell id="feature-14" value="Fast Load Times&#xa;Minimal dependencies" style="rounded=1;whiteSpace=wrap;html=1;fillColor=#e8f5e9;strokeColor=#00897b;fontSize=11;fontStyle=1;" parent="features-summary" vertex="1">
          <mxGeometry x="210" y="340" width="160" height="50" as="geometry" />
        </mxCell>
        <mxCell id="feature-15" value="SEO Friendly&#xa;Static HTML content" style="rounded=1;whiteSpace=wrap;html=1;fillColor=#e8f5e9;strokeColor=#00897b;fontSize=11;fontStyle=1;" parent="features-summary" vertex="1">
          <mxGeometry x="390" y="340" width="160" height="50" as="geometry" />
        </mxCell>
        <mxCell id="feature-note" value="All features work together to create&#xa;a seamless documentation experience&#xa;optimized for macOS Claude Code users" style="rounded=1;whiteSpace=wrap;html=1;fillColor=#c8e6c9;strokeColor=#00897b;fontSize=10;fontStyle=2;align=center;" parent="features-summary" vertex="1">
          <mxGeometry x="30" y="410" width="520" height="60" as="geometry" />
        </mxCell>

        <!-- CONNECTORS AND ARROWS -->

        <!-- HTML to JavaScript -->
        <mxCell id="arrow-html-to-nav" value="" style="edgeStyle=orthogonalEdgeStyle;rounded=0;orthogonalLoop=1;jettySize=auto;html=1;strokeWidth=3;strokeColor=#f6b26b;" parent="1" source="common-structure" target="navigation-js" edge="1">
          <mxGeometry relative="1" as="geometry">
            <Array as="points">
              <mxPoint x="1200" y="440" />
              <mxPoint x="420" y="440" />
            </Array>
          </mxGeometry>
        </mxCell>
        <mxCell id="arrow-html-to-nav-label" value="Loads on&#xa;DOMContentLoaded" style="edgeLabel;html=1;align=center;verticalAlign=middle;resizable=0;points=[];fontSize=12;fontStyle=1;fillColor=#fff;strokeColor=#f6b26b;rounded=1;" parent="arrow-html-to-nav" vertex="1" connectable="0">
          <mxGeometry x="-0.1" y="2" relative="1" as="geometry">
            <mxPoint x="50" y="-12" as="offset" />
          </mxGeometry>
        </mxCell>

        <!-- JavaScript to CSS -->
        <mxCell id="arrow-nav-to-css" value="" style="edgeStyle=orthogonalEdgeStyle;rounded=0;orthogonalLoop=1;jettySize=auto;html=1;strokeWidth=3;strokeColor=#93c47d;" parent="1" source="navigation-js" target="styles-css" edge="1">
          <mxGeometry relative="1" as="geometry">
            <Array as="points">
              <mxPoint x="900" y="565" />
              <mxPoint x="900" y="440" />
              <mxPoint x="1640" y="440" />
            </Array>
          </mxGeometry>
        </mxCell>
        <mxCell id="arrow-nav-to-css-label" value="Applies&#xa;data-theme" style="edgeLabel;html=1;align=center;verticalAlign=middle;resizable=0;points=[];fontSize=12;fontStyle=1;fillColor=#fff;strokeColor=#93c47d;rounded=1;" parent="arrow-nav-to-css" vertex="1" connectable="0">
          <mxGeometry x="0.1" y="1" relative="1" as="geometry">
            <mxPoint x="-50" y="-12" as="offset" />
          </mxGeometry>
        </mxCell>

        <!-- JavaScript to Theme -->
        <mxCell id="arrow-nav-to-theme" value="" style="edgeStyle=orthogonalEdgeStyle;rounded=0;orthogonalLoop=1;jettySize=auto;html=1;strokeWidth=3;strokeColor=#e06666;" parent="1" source="nav-features" target="theme-storage" edge="1">
          <mxGeometry relative="1" as="geometry">
            <Array as="points">
              <mxPoint x="800" y="785" />
              <mxPoint x="800" y="565" />
            </Array>
          </mxGeometry>
        </mxCell>
        <mxCell id="arrow-nav-to-theme-label" value="Manages theme&#xa;persistence" style="edgeLabel;html=1;align=center;verticalAlign=middle;resizable=0;points=[];fontSize=12;fontStyle=1;fillColor=#fff;strokeColor=#e06666;rounded=1;" parent="arrow-nav-to-theme" vertex="1" connectable="0">
          <mxGeometry x="-0.2" y="2" relative="1" as="geometry">
            <mxPoint x="-15" y="40" as="offset" />
          </mxGeometry>
        </mxCell>

        <!-- Code Copy to Highlight.js -->
        <mxCell id="arrow-code-to-highlight" value="" style="edgeStyle=orthogonalEdgeStyle;rounded=0;orthogonalLoop=1;jettySize=auto;html=1;strokeWidth=3;strokeColor=#aa80c4;dashed=1;" parent="1" source="code-copy-js" target="highlightjs" edge="1">
          <mxGeometry relative="1" as="geometry">
            <Array as="points">
              <mxPoint x="40" y="950" />
              <mxPoint x="40" y="470" />
            </Array>
          </mxGeometry>
        </mxCell>
        <mxCell id="arrow-code-to-highlight-label" value="Uses for&#xa;syntax highlighting" style="edgeLabel;html=1;align=center;verticalAlign=middle;resizable=0;points=[];fontSize=12;fontStyle=1;fillColor=#fff;strokeColor=#aa80c4;rounded=1;" parent="arrow-code-to-highlight" vertex="1" connectable="0">
          <mxGeometry x="-0.3" y="1" relative="1" as="geometry">
            <mxPoint x="80" y="-5" as="offset" />
          </mxGeometry>
        </mxCell>

        <!-- User Flow to HTML -->
        <mxCell id="arrow-user-to-html" value="" style="edgeStyle=orthogonalEdgeStyle;rounded=0;orthogonalLoop=1;jettySize=auto;html=1;strokeWidth=4;strokeColor=#ff9900;" parent="1" source="user-actions" target="page-home" edge="1">
          <mxGeometry relative="1" as="geometry">
            <Array as="points">
              <mxPoint x="2000" y="560" />
              <mxPoint x="2000" y="200" />
            </Array>
          </mxGeometry>
        </mxCell>
        <mxCell id="arrow-user-to-html-label" value="Interacts with" style="edgeLabel;html=1;align=center;verticalAlign=middle;resizable=0;points=[];fontSize=13;fontStyle=1;fillColor=#fff;strokeColor=#ff9900;rounded=1;" parent="arrow-user-to-html" vertex="1" connectable="0">
          <mxGeometry x="-0.8" y="2" relative="1" as="geometry">
            <mxPoint x="-10" y="-15" as="offset" />
          </mxGeometry>
        </mxCell>

        <!-- Theme to CSS -->
        <mxCell id="arrow-theme-to-css" value="" style="edgeStyle=orthogonalEdgeStyle;rounded=0;orthogonalLoop=1;jettySize=auto;html=1;strokeWidth=2;strokeColor=#cc0000;dashed=1;dashPattern=5 5;" parent="1" source="theme-logic" target="dark-mode-css" edge="1">
          <mxGeometry relative="1" as="geometry">
            <Array as="points">
              <mxPoint x="1350" y="680" />
              <mxPoint x="1350" y="795" />
            </Array>
          </mxGeometry>
        </mxCell>
        <mxCell id="arrow-theme-to-css-label" value="CSS reacts to&#xa;theme changes" style="edgeLabel;html=1;align=center;verticalAlign=middle;resizable=0;points=[];fontSize=11;fontStyle=1;fillColor=#fff;strokeColor=#cc0000;rounded=1;" parent="arrow-theme-to-css" vertex="1" connectable="0">
          <mxGeometry x="-0.1" y="1" relative="1" as="geometry">
            <mxPoint x="5" y="-25" as="offset" />
          </mxGeometry>
        </mxCell>

        <!-- FOOTER -->
        <mxCell id="footer-note" value="Claude Code Documentation Project | Professional Architecture Diagram | Generated: 2025-10-16 | Organized for clarity and stakeholder presentation" style="text;html=1;strokeColor=none;fillColor=none;align=center;verticalAlign=middle;whiteSpace=wrap;rounded=0;fontSize=11;fontColor=#666666;fontStyle=2;" parent="1" vertex="1">
          <mxGeometry x="600" y="1680" width="1200" height="30" as="geometry" />
        </mxCell>

        <!-- TECHNICAL SPECS BOX -->
        <mxCell id="tech-specs" value="Technical Specifications:&#xa;&#xa;• No bundlers (Webpack, Vite, etc.)&#xa;• No transpilers (Babel, TypeScript)&#xa;• No CSS preprocessors (Sass, Less)&#xa;• No frontend frameworks (React, Vue)&#xa;• Pure vanilla JavaScript (ES6+)&#xa;• Modern CSS (Grid, Flexbox, Variables)&#xa;• Progressive enhancement approach&#xa;• Works without JavaScript (degraded)&#xa;• Compatible with all modern browsers&#xa;• Optimized for macOS Safari/Chrome" style="rounded=1;whiteSpace=wrap;html=1;fillColor=#e1f5fe;strokeColor=#0277bd;fontSize=11;align=left;spacingLeft=15;verticalAlign=top;fontStyle=0;" parent="1" vertex="1">
          <mxGeometry x="780" y="1140" width="340" height="220" as="geometry" />
        </mxCell>

        <!-- CONTENT LANGUAGE BOX -->
        <mxCell id="language-specs" value="Content Specifications:&#xa;&#xa;• Language: Spanish (Español)&#xa;• Target Audience: macOS users&#xa;• Shell: zsh (not bash)&#xa;• Package Manager: Homebrew&#xa;• Code examples: Copy-paste ready&#xa;• Command highlighting: macOS-specific&#xa;• Paths: macOS conventions&#xa;  (~/.zshrc, /usr/local/bin/)&#xa;• All documentation: Spanish text&#xa;• Technical terms: English + Spanish" style="rounded=1;whiteSpace=wrap;html=1;fillColor=#fff3e0;strokeColor=#ff6f00;fontSize=11;align=left;spacingLeft=15;verticalAlign=top;fontStyle=0;" parent="1" vertex="1">
          <mxGeometry x="1380" y="860" width="340" height="200" as="geometry" />
        </mxCell>

        <!-- NAVIGATION FLOW INDICATOR -->
        <mxCell id="nav-flow" value="" style="edgeStyle=orthogonalEdgeStyle;rounded=0;orthogonalLoop=1;jettySize=auto;html=1;strokeWidth=3;strokeColor=#4a86e8;dashed=1;dashPattern=8 8;" parent="1" edge="1">
          <mxGeometry relative="1" as="geometry">
            <mxPoint x="640" y="200" as="sourcePoint" />
            <mxPoint x="2280" y="200" as="targetPoint" />
          </mxGeometry>
        </mxCell>
        <mxCell id="nav-flow-label" value="Sequential Navigation Flow (9 Pages)" style="edgeLabel;html=1;align=center;verticalAlign=middle;resizable=0;points=[];fontSize=13;fontStyle=1;fillColor=#cfe2f3;strokeColor=#4a86e8;rounded=1;" parent="nav-flow" vertex="1" connectable="0">
          <mxGeometry x="-0.1" y="2" relative="1" as="geometry">
            <mxPoint y="-15" as="offset" />
          </mxGeometry>
        </mxCell>

      </root>
    </mxGraphModel>
  </diagram>
</mxfile>
